PathFileType	4	(X/Y/Z)	OpenSim_Sub06_EMGBaseline_Gyro.trc
DataRate	CameraRate	NumFrames	NumMarkers	Units	OrigDataRate	OrigDataStartFrame	OrigNumFrames
100	100	13	8	m	100	3102	8270
Frame#	Time	torso_imu_offset_imu	pelvis_imu_offset_imu	tibia_r_imu_offset_imu	femur_r_imu_offset_imu	tibia_l_imu_offset_imu	femur_l_imu_offset_imu	toes_r_imu_offset_imu	toes_l_imu_offset_imu
				X1	Y1	Z1	X2	Y2	Z2	X3	Y3	Z3	X4	Y4	Z4	X5	Y5	Z5	X6	Y6	Z6	X7	Y7	Z7	X8		Y8	Z8	

3102	31.01000000	0.79387444	-0.16521954	0.24155661	0.45717525	0.18417676	-0.36447167	0.59983781	-0.10101192	-0.47280461	-0.54464579	-0.57939040	-0.77526058	1.18398216	-0.74037029	-1.08825419	0.84827630	0.26702644	-1.64625665	-0.01607479	-0.25647981	-0.13737598	0.41523741	2.02825536	-0.27274523
3103	31.02000000	0.83005325	-0.19219656	0.20900027	0.43948056	0.15430545	-0.36055665	0.22828252	-0.10245369	-0.52764562	-0.52065042	-0.59683879	-0.73544096	1.09702085	-0.55841134	-1.64384743	0.71566010	0.21067962	-1.51610840	-0.03512009	-0.26261886	-0.15112811	0.77236866	2.62773188	-0.57894768
3104	31.03000000	0.82424648	-0.21799532	0.17976538	0.41670524	0.13169067	-0.34275325	-0.11450928	-0.10220472	-0.58415489	-0.42523179	-0.50210676	-0.72996031	0.71605286	-0.31270825	-2.05595109	0.52699829	0.12827998	-1.39572405	-0.03469545	-0.28039114	-0.17360713	1.03801736	3.14654411	-0.76366106
3105	31.04000000	0.79618967	-0.22348714	0.15960223	0.39012412	0.10890040	-0.30953289	-0.45663258	-0.09063064	-0.63583645	-0.29668490	-0.34535684	-0.72929731	0.16712932	-0.11844327	-2.30862119	0.35417685	0.06011579	-1.30416672	-0.03578719	-0.28251898	-0.18116323	1.05161533	3.42899190	-0.78457369
3106	31.05000000	0.78621843	-0.22582252	0.15600273	0.34630834	0.09298457	-0.28666932	-0.70622282	-0.07493030	-0.67350742	-0.19668400	-0.23181738	-0.70661053	-0.33268728	-0.08942434	-2.53579359	0.20267631	0.01018692	-1.24113836	-0.03765280	-0.28676530	-0.18056417	1.18507380	3.44336007	-0.68895503
3107	31.06000000	0.75046775	-0.23854144	0.15481461	0.28911680	0.10731027	-0.25674514	-0.77204835	-0.04877358	-0.69649723	-0.12578921	-0.18116183	-0.66693253	-0.77688377	-0.19398632	-2.90294608	0.05668809	-0.03838119	-1.17320218	-0.01365065	-0.31196398	-0.19676349	1.23302280	3.36656847	-0.59572024
3108	31.07000000	0.69402815	-0.25885627	0.15304944	0.23841535	0.13666793	-0.23251870	-0.68058014	-0.03254154	-0.69992221	-0.06863468	-0.17653455	-0.65414980	-1.11166173	-0.33311879	-3.40469735	-0.05223117	-0.08418394	-1.08897524	-0.03408957	-0.29948431	-0.19020777	1.62171184	3.31835983	-0.59885262
3109	31.08000000	0.63901692	-0.26701275	0.16142988	0.24798880	0.17946801	-0.19308574	-0.45449945	-0.02760036	-0.69014175	-0.05074352	-0.19256239	-0.66679019	-1.10253347	-0.47269827	-3.85041262	-0.13176015	-0.11890138	-0.99127020	-0.01901651	-0.29544231	-0.20590354	1.84014756	3.28437481	-0.71393989
3110	31.09000000	0.58422537	-0.26762930	0.17252458	0.27083954	0.20620420	-0.19942753	-0.15827342	-0.03162519	-0.64816951	-0.08202588	-0.23468458	-0.70514997	-0.78575129	-0.56245040	-4.00837915	-0.21044421	-0.14268104	-0.88374733	0.01818892	-0.29619028	-0.21870861	1.87309380	3.23919593	-0.91793104
3111	31.10000000	0.52253438	-0.24562634	0.16894876	0.27659349	0.21784730	-0.20242007	0.12575266	-0.03458354	-0.57066447	-0.14781500	-0.28096418	-0.73562190	-0.39171144	-0.63374421	-3.87459164	-0.26821733	-0.16197008	-0.73567962	0.01265858	-0.28018865	-0.22117508	1.74720650	3.16066670	-1.14507428
3112	31.11000000	0.48870766	-0.22080887	0.16779071	0.30607598	0.23779705	-0.16793571	0.31773908	-0.02999095	-0.49824772	-0.14684324	-0.32771486	-0.76099594	-0.05749375	-0.65876582	-3.71371510	-0.29894771	-0.18176654	-0.56718846	0.05389592	-0.27018570	-0.23791650	1.50285181	3.03999618	-1.37203675
3113	31.12000000	0.47256727	-0.19976706	0.16856542	0.31114267	0.26752797	-0.15880151	0.40270378	-0.02300039	-0.46667740	-0.08874840	-0.34198814	-0.77302786	0.17863121	-0.58540568	-3.73353611	-0.31690639	-0.19004046	-0.42330753	0.03978271	-0.25368005	-0.23134599	1.32419841	2.91254796	-1.56176300
3114	31.13000000	0.46773978	-0.18650413	0.16095817	0.29674396	0.29250043	-0.12142433	0.38776400	-0.02931623	-0.48298161	0.01698528	-0.32491932	-0.79703689	0.25286767	-0.40432610	-4.00955012	-0.33221326	-0.19930540	-0.30538613	0.03485956	-0.23931207	-0.21959993	1.27787183	2.88499975	-1.74300677
